<?xml version="1.0" encoding="utf-8"?>
<!-- Generator: Adobe Illustrator 19.0.0, SVG Export Plug-In . SVG Version: 6.00 Build 0)  -->
<svg version="1.1" id="Layer_1" xmlns="http://www.w3.org/2000/svg" xmlns:xlink="http://www.w3.org/1999/xlink" x="0px" y="0px"
	 viewBox="-243 245 512 512" style="enable-background:new -243 245 512 512;" xml:space="preserve">
<style type="text/css">
	.st0{fill:#FFFFFF;}
</style>
<g>
	<path class="st0" d="M194,320c-48.4-48.4-112.6-75-181-75s-132.7,26.6-181,75s-75,112.6-75,181s26.6,132.7,75,181s112.6,75,181,75
		s132.7-26.6,181-75c48.4-48.4,75-112.6,75-181S242.4,368.3,194,320L194,320z M13,485c39.7,0,72,32.3,72,72
		c0,32.9-22.2,60.7-52.3,69.2c-2.2,0.6-3.7,2.6-3.7,4.8v13.5c0,8.6-6.6,16-15.2,16.4C4.6,661.4-3,654.1-3,645v-13.9
		c0-2.2-1.5-4.2-3.7-4.8c-30-8.5-52.1-36.1-52.3-68.8c-0.1-8.7,6.8-16.2,15.5-16.4c9.1-0.3,16.5,7,16.5,16c0,23,19.5,41.5,42.9,39.9
		c19.7-1.4,35.7-17.3,37-37C54.5,536.5,36,517,13,517c-39.7,0-72-32.3-72-72c0-32.9,22.2-60.7,52.3-69.2c2.2-0.6,3.7-2.6,3.7-4.8
		v-13.5c0-8.6,6.6-16,15.2-16.4c9.2-0.4,16.8,6.9,16.8,16v13.9c0,2.2,1.5,4.2,3.7,4.8c30,8.5,52.1,36.1,52.3,68.8
		c0.1,8.7-6.8,16.2-15.5,16.4c-9.1,0.3-16.5-7-16.5-16c0-23-19.5-41.5-42.9-39.9c-19.7,1.4-35.7,17.3-37,37
		C-28.5,465.5-10,485,13,485L13,485z"/>
</g>
</svg>
