<?xml version="1.0" encoding="utf-8"?>
<!-- Generator: Adobe Illustrator 19.0.0, SVG Export Plug-In . SVG Version: 6.00 Build 0)  -->
<svg version="1.1" id="Camada_1" focusable="false" xmlns="http://www.w3.org/2000/svg" xmlns:xlink="http://www.w3.org/1999/xlink"
	 x="0px" y="0px" viewBox="-179 245 640 512" style="enable-background:new -179 245 640 512;" xml:space="preserve">
<style type="text/css">
	.st0{fill:#FFFFFF;}
</style>
<path class="st0" d="M246.7,501c-16.9,0-32.8-9-41.4-23.4L141,371L76.8,477.6c-8.7,14.5-24.6,23.5-41.5,23.5c-4.5,0-9-0.6-13.3-1.9
	L-115,460v178c0,14.7,10,27.5,24.2,31l216.2,54.1c10.2,2.5,20.9,2.5,31,0L372.8,669c14.2-3.6,24.2-16.4,24.2-31V460l-137,39.1
	C255.7,500.4,251.2,501,246.7,501z M459.3,388.8L407.8,286c-3.1-6.2-9.8-9.8-16.7-8.9L141,309l91.7,152.1c3.8,6.3,11.4,9.3,18.5,7.3
	l197.9-56.5C459,409,463.8,398,459.3,388.8L459.3,388.8z M-125.8,286l-51.5,102.8c-4.6,9.2,0.3,20.2,10.1,23l197.9,56.5
	c7.1,2,14.7-1,18.5-7.3L141,309l-250.2-31.9C-116.1,276.3-122.7,279.8-125.8,286z"/>
</svg>
