<?xml version="1.0" encoding="utf-8"?>
<!-- Generator: Adobe Illustrator 19.0.0, SVG Export Plug-In . SVG Version: 6.00 Build 0)  -->
<svg version="1.1" id="Camada_1" focusable="false" xmlns="http://www.w3.org/2000/svg" xmlns:xlink="http://www.w3.org/1999/xlink"
	 x="0px" y="0px" viewBox="-307 245 384 512" style="enable-background:new -307 245 384 512;" xml:space="preserve">
<style type="text/css">
	.st0{fill:#FFFFFF;}
</style>
<path class="st0" d="M-83,381V245h-200c-13.3,0-24,10.7-24,24v464c0,13.3,10.7,24,24,24H53c13.3,0,24-10.7,24-24V405H-59
	C-72.2,405-83,394.2-83,381z M-17.8,597H-83v80c0,8.8-7.2,16-16,16h-32c-8.8,0-16-7.2-16-16v-80h-65.2c-14.3,0-21.4-17.3-11.3-27.4
	L-127,474c6.6-6.6,17.4-6.6,24,0l96.4,95.7C3.6,579.7-3.5,597-17.8,597z M70,350l-97.9-98c-4.5-4.5-10.6-7-17-7H-51v128H77v-6.1
	C77,360.6,74.5,354.5,70,350z"/>
</svg>
